HIERARCHY
ROOT hip
{
  OFFSET 0 0 0
  CHANNELS 6 Xposition Yposition Zposition Zrotation Yrotation Xrotation
  JOINT abdomen
  {
    OFFSET 0 20.6881 -0.73152
    CHANNELS 3 Zrotation Xrotation Yrotation
    JOINT chest
    {
      OFFSET 0 11.7043 -0.48768
      CHANNELS 3 Zrotation Xrotation Yrotation
      JOINT neck
      {
        OFFSET 0 22.1894 -2.19456
        CHANNELS 3 Zrotation Xrotation Yrotation
        JOINT head
        {
          OFFSET -0.24384 7.07133 1.2192
          CHANNELS 3 Zrotation Xrotation Yrotation
          JOINT leftEye
          {
            OFFSET 4.14528 8.04674 8.04672
            CHANNELS 3 Zrotation Xrotation Yrotation
            End Site
            {
              OFFSET 1 0 0
            }
          }
          JOINT rightEye
          {
            OFFSET -3.6576 8.04674 8.04672
            CHANNELS 3 Zrotation Xrotation Yrotation
            End Site
            {
              OFFSET 1 0 0
            }
          }
        }
      }
      JOINT rCollar
      {
        OFFSET -2.68224 19.2634 -4.8768
        CHANNELS 3 Zrotation Xrotation Yrotation
        JOINT rShldr
        {
          OFFSET -8.77824 -1.95073 1.46304
          CHANNELS 3 Zrotation Xrotation Yrotation
          JOINT rForeArm
          {
            OFFSET -28.1742 -1.7115 0.48768
            CHANNELS 3 Zrotation Xrotation Yrotation
            JOINT rHand
            {
              OFFSET -22.5879 0.773209 7.07136
              CHANNELS 3 Zrotation Xrotation Yrotation
              JOINT rThumb1
              {
                OFFSET -1.2192 -0.487915 3.41376
                CHANNELS 3 Zrotation Xrotation Yrotation
                JOINT rThumb2
                {
                  OFFSET -3.37035 -0.52449 3.41376
                  CHANNELS 3 Zrotation Xrotation Yrotation
                  End Site
                  {
                    OFFSET -1.78271 -1.18214 1.43049
                  }
                }
              }
              JOINT rIndex1
              {
                OFFSET -7.75947 0.938293 5.60832
                CHANNELS 3 Zrotation Xrotation Yrotation
                JOINT rIndex2
                {
                  OFFSET -2.54057 -0.884171 1.56538
                  CHANNELS 3 Zrotation Xrotation Yrotation
                  End Site
                  {
                    OFFSET -1.62519 -0.234802 1.16502
                  }
                }
              }
              JOINT rMid1
              {
                OFFSET -8.24714 1.18213 3.41376
                CHANNELS 3 Zrotation Xrotation Yrotation
                JOINT rMid2
                {
                  OFFSET -3.10165 -0.590103 1.0647
                  CHANNELS 3 Zrotation Xrotation Yrotation
                  End Site
                  {
                    OFFSET -2.48547 -0.328903 0.83742
                  }
                }
              }
              JOINT rRing1
              {
                OFFSET -8.82822 0.546677 1.51678
                CHANNELS 3 Zrotation Xrotation Yrotation
                JOINT rRing2
                {
                  OFFSET -2.60934 -0.819778 -0.0198488
                  CHANNELS 3 Zrotation Xrotation Yrotation
                  End Site
                  {
                    OFFSET -2.33842 -0.294052 0.168128
                  }
                }
              }
              JOINT rPinky1
              {
                OFFSET -8.27202 -0.0477905 -0.4584
                CHANNELS 3 Zrotation Xrotation Yrotation
                JOINT rPinky2
                {
                  OFFSET -1.82734 -0.647385 -0.700984
                  CHANNELS 3 Zrotation Xrotation Yrotation
                  End Site
                  {
                    OFFSET -1.69225 -0.51767 -0.607171
                  }
                }
              }
            }
          }
        }
      }
      JOINT lCollar
      {
        OFFSET 2.68224 19.2634 -4.8768
        CHANNELS 3 Zrotation Xrotation Yrotation
        JOINT lShldr
        {
          OFFSET 8.77824 -1.95073 1.46304
          CHANNELS 3 Zrotation Xrotation Yrotation
          JOINT lForeArm
          {
            OFFSET 28.1742 -1.7115 0.48768
            CHANNELS 3 Zrotation Xrotation Yrotation
            JOINT lHand
            {
              OFFSET 22.5879 0.773209 7.07136
              CHANNELS 3 Zrotation Xrotation Yrotation
              JOINT lThumb1
              {
                OFFSET 1.2192 -0.487915 3.41376
                CHANNELS 3 Zrotation Xrotation Yrotation
                JOINT lThumb2
                {
                  OFFSET 3.37035 -0.52449 3.41376
                  CHANNELS 3 Zrotation Xrotation Yrotation
                  End Site
                  {
                    OFFSET 1.78271 -1.18214 1.43049
                  }
                }
              }
              JOINT lIndex1
              {
                OFFSET 7.75947 0.938293 5.60832
                CHANNELS 3 Zrotation Xrotation Yrotation
                JOINT lIndex2
                {
                  OFFSET 2.54057 -0.884171 1.56538
                  CHANNELS 3 Zrotation Xrotation Yrotation
                  End Site
                  {
                    OFFSET 1.62519 -0.234802 1.16502
                  }
                }
              }
              JOINT lMid1
              {
                OFFSET 8.24714 1.18213 3.41376
                CHANNELS 3 Zrotation Xrotation Yrotation
                JOINT lMid2
                {
                  OFFSET 3.10165 -0.590103 1.0647
                  CHANNELS 3 Zrotation Xrotation Yrotation
                  End Site
                  {
                    OFFSET 2.48547 -0.328903 0.83742
                  }
                }
              }
              JOINT lRing1
              {
                OFFSET 8.82822 0.546677 1.51678
                CHANNELS 3 Zrotation Xrotation Yrotation
                JOINT lRing2
                {
                  OFFSET 2.60934 -0.819778 -0.0198488
                  CHANNELS 3 Zrotation Xrotation Yrotation
                  End Site
                  {
                    OFFSET 2.33842 -0.294052 0.168128
                  }
                }
              }
              JOINT lPinky1
              {
                OFFSET 8.27202 -0.0477905 -0.4584
                CHANNELS 3 Zrotation Xrotation Yrotation
                JOINT lPinky2
                {
                  OFFSET 1.82734 -0.647385 -0.700984
                  CHANNELS 3 Zrotation Xrotation Yrotation
                  End Site
                  {
                    OFFSET 1.69225 -0.51767 -0.607171
                  }
                }
              }
            }
          }
        }
      }
    }
  }
  JOINT rButtock
  {
    OFFSET -8.77824 4.35084 1.2192
    CHANNELS 3 Zrotation Xrotation Yrotation
    JOINT rThigh
    {
      OFFSET 0 -1.70687 -2.19456
      CHANNELS 3 Zrotation Xrotation Yrotation
      JOINT rShin
      {
        OFFSET 0 -36.8199 0.73152
        CHANNELS 3 Zrotation Xrotation Yrotation
        JOINT rFoot
        {
          OFFSET 0.73152 -45.1104 -5.12064
          CHANNELS 3 Zrotation Xrotation Yrotation
          End Site
          {
            OFFSET -1.1221 -3.69964 12.103
          }
        }
      }
    }
  }
  JOINT lButtock
  {
    OFFSET 8.77824 4.35084 1.2192
    CHANNELS 3 Zrotation Xrotation Yrotation
    JOINT lThigh
    {
      OFFSET 0 -1.70687 -2.19456
      CHANNELS 3 Zrotation Xrotation Yrotation
      JOINT lShin
      {
        OFFSET 0 -36.8199 0.73152
        CHANNELS 3 Zrotation Xrotation Yrotation
        JOINT lFoot
        {
          OFFSET -0.73152 -45.1104 -5.12064
          CHANNELS 3 Zrotation Xrotation Yrotation
          End Site
          {
            OFFSET 1.1221 -3.69964 12.103
          }
        }
      }
    }
  }
}
MOTION
Frames:	5
Frame Time:	0.00833333
-47.3881 72.7297 139.152 170.539 0.8374 -152.625 4.26167 9.22427 -4.46894 4.01622 -10.8401 -0.853443 0.682648 -0.629943 2.6302 -11.3898 -29.558 3.66614 -0.0 0.0 0.0 -0.0 0.0 0.0 -2.46143e-14 -1.28246e-13 1.86463e-13 78.3147 25.2855 -25.5216 -25.0418 -21.1856 53.1005 -0.00398926 -1.86051 -0.261555 5.03671e-10 -2.1103e-10 -1.9678e-09 8.75058e-10 -3.63978e-10 -3.3921e-09 5.03674e-10 -2.11026e-10 -1.9678e-09 7.73091 5.47488 0.417314 5.03668e-10 -2.11026e-10 -1.9678e-09 2.90554 0.965183 0.102902 5.03681e-10 -2.11026e-10 -1.9678e-09 10.2786 0.731801 0.0259123 5.03671e-10 -2.11029e-10 -1.96779e-09 2.22167 -0.733487 -0.20892 -2.47389e-14 -1.28286e-13 1.86178e-13 -69.0677 48.6786 -17.8044 28.3217 -33.0865 -72.1895 0.00107461 -0.595575 0.0837006 -2.12474e-09 1.30171e-08 4.13848e-09 -3.67624e-09 2.24936e-08 7.15348e-09 -2.12474e-09 1.30171e-08 4.1385e-09 -7.73091 5.47488 -0.417314 -2.12474e-09 1.30171e-08 4.13849e-09 -2.90554 0.965183 -0.102902 -2.12475e-09 1.30171e-08 4.13849e-09 -10.2786 0.731801 -0.0259123 -2.12473e-09 1.30171e-08 4.13849e-09 -2.22167 -0.733487 0.20892 -2.03217e-16 0.0 -3.88251e-19 -44.349 -69.3846 -44.8815 -152.184 87.6395 152.666 -1.98334 -8.07829 -4.62829 2.03217e-16 0.0 3.88251e-19 -10.9438 -21.2244 -3.11424 0.421057 44.9492 -0.960261 -6.63415 -15.3021 -18.6079
-47.4829 73.1609 136.952 170.076 1.5324 -152.677 3.93266 9.32386 -4.39974 3.97452 -10.8414 -0.821403 0.478048 -0.555385 2.69563 -11.3837 -29.2071 3.85795 -0.0 0.0 0.0 -0.0 0.0 0.0 -9.48904e-15 -8.58571e-14 2.49773e-13 78.2978 25.9998 -26.4395 -25.03 -21.1603 53.0555 -0.00231259 -1.373 -0.193 1.28581e-10 2.70487e-10 -1.27421e-09 2.22707e-10 4.69723e-10 -2.19465e-09 1.28583e-10 2.7049e-10 -1.27421e-09 7.73091 5.47488 0.417314 1.28578e-10 2.70491e-10 -1.27421e-09 2.90554 0.965183 0.102902 1.28592e-10 2.70491e-10 -1.27421e-09 10.2786 0.731801 0.0259123 1.28581e-10 2.70489e-10 -1.2742e-09 2.22167 -0.733487 -0.20892 -9.59471e-15 -8.58934e-14 2.49524e-13 -68.4149 48.8756 -18.6281 28.354 -33.5313 -72.9344 0.000160494 -0.361745 0.0508406 -1.48886e-09 8.60823e-09 2.4415e-09 -2.57485e-09 1.48722e-08 4.21907e-09 -1.48886e-09 8.6082e-09 2.4415e-09 -7.73091 5.47488 -0.417314 -1.48886e-09 8.60821e-09 2.4415e-09 -2.90554 0.965183 -0.102902 -1.48886e-09 8.60822e-09 2.4415e-09 -10.2786 0.731801 -0.0259123 -1.48885e-09 8.60822e-09 2.4415e-09 -2.22167 -0.733487 0.20892 -2.03217e-16 0.0 -3.88251e-19 -48.2084 -71.4617 -48.9854 -134.249 88.4897 134.707 -1.66917 -9.01459 -3.7819 2.03217e-16 0.0 3.88251e-19 -11.4782 -19.2867 -3.35969 0.358321 42.6244 -0.924771 -5.35403 -11.1026 -18.8991
-47.5778 73.4842 134.774 169.585 2.3675 -152.806 3.54535 9.61142 -4.22925 3.9399 -10.842 -0.75244 0.269445 -0.484469 2.75505 -11.3681 -28.8904 4.04324 -0.0 0.0 0.0 -0.0 0.0 0.0 4.22205e-14 -1.08573e-13 3.0043e-13 78.272 26.67 -27.0418 -24.9888 -21.0721 52.9082 -0.000939388 -0.907658 -0.127581 6.07552e-11 3.26414e-10 -1.4121e-09 1.04539e-10 5.67201e-10 -2.43186e-09 6.07581e-11 3.26418e-10 -1.41211e-09 7.73091 5.47488 0.417314 6.07518e-11 3.26419e-10 -1.4121e-09 2.90554 0.965183 0.102902 6.0767e-11 3.26419e-10 -1.41211e-09 10.2786 0.731801 0.0259123 6.0756e-11 3.26417e-10 -1.4121e-09 2.22167 -0.733487 -0.20892 4.21281e-14 -1.086e-13 3.00202e-13 -68.0353 48.9974 -19.1468 28.3726 -33.8701 -73.5179 -0.00113097 0.158762 -0.0223002 -1.6885e-09 8.91873e-09 2.3809e-09 -2.91709e-09 1.54066e-08 4.11355e-09 -1.6885e-09 8.91871e-09 2.38091e-09 -7.73091 5.47488 -0.417314 -1.6885e-09 8.91871e-09 2.3809e-09 -2.90554 0.965183 -0.102902 -1.6885e-09 8.91872e-09 2.3809e-09 -10.2786 0.731801 -0.0259123 -1.68849e-09 8.91873e-09 2.3809e-09 -2.22167 -0.733487 0.20892 -2.03217e-16 0.0 -3.88251e-19 -51.5744 -73.252 -52.7271 -71.6762 88.8841 72.0856 -1.2889 -9.98081 -2.80298 2.03217e-16 0.0 3.88251e-19 -12.0375 -17.509 -3.46408 0.305197 40.2637 -0.885944 -3.4846 -5.39039 -19.0926
-47.6593 73.9518 132.524 169.052 3.3052 -153.025 3.10573 10.0401 -3.9541 3.90149 -10.8429 -0.648597 0.051437 -0.416224 2.80847 -11.3457 -28.5924 4.22287 -0.0 0.0 0.0 -0.0 0.0 0.0 1.20422e-13 -1.6419e-13 3.46174e-13 78.2366 27.3655 -27.3852 -24.9225 -20.9304 52.6758 7.64456e-06 -0.441509 -0.0620574 1.33854e-10 1.76315e-10 -1.98805e-09 2.31501e-10 3.08367e-10 -3.42492e-09 1.33858e-10 1.76319e-10 -1.98806e-09 7.73091 5.47488 0.417314 1.3385e-10 1.7632e-10 -1.98805e-09 2.90554 0.965183 0.102902 1.33866e-10 1.76319e-10 -1.98806e-09 10.2786 0.731801 0.0259123 1.33856e-10 1.76317e-10 -1.98805e-09 2.22167 -0.733487 -0.20892 1.20342e-13 -1.64203e-13 3.4596e-13 -67.8907 49.071 -19.3931 28.3884 -34.134 -73.9456 -0.000756616 0.889056 -0.124934 -2.33528e-09 1.16817e-08 3.15368e-09 -4.03158e-09 2.01792e-08 5.44866e-09 -2.33528e-09 1.16817e-08 3.15368e-09 -7.73091 5.47488 -0.417314 -2.33528e-09 1.16817e-08 3.15367e-09 -2.90554 0.965183 -0.102902 -2.33528e-09 1.16817e-08 3.15367e-09 -10.2786 0.731801 -0.0259123 -2.33527e-09 1.16817e-08 3.15367e-09 -2.22167 -0.733487 0.20892 -2.03217e-16 0.0 -3.88251e-19 -54.3486 -74.8583 -55.9985 -25.79 87.6198 26.1317 -0.845426 -10.9594 -1.73316 2.03217e-16 0.0 3.88251e-19 -12.6382 -15.8637 -3.45805 0.261367 37.8731 -0.846971 -1.13448 1.53504 -19.4051
-47.7289 74.3915 130.291 168.479 4.3219 -153.306 2.62033 10.5732 -3.64569 3.85318 -10.8307 -0.541321 -0.165307 -0.373694 2.8529 -11.325 -28.3243 4.38766 -0.0 0.0 0.0 -0.0 0.0 0.0 2.17359e-13 -2.19608e-13 3.70752e-13 78.1572 28.0228 -27.4434 -24.8394 -20.7552 52.388 0.000255966 -0.0175954 -0.00247453 1.70818e-10 -5.99398e-11 -2.7106e-09 2.96673e-10 -9.94564e-11 -4.67117e-09 1.70823e-10 -5.99356e-11 -2.71061e-09 7.73091 5.47488 0.417314 1.70814e-10 -5.99339e-11 -2.7106e-09 2.90554 0.965183 0.102902 1.70831e-10 -5.9936e-11 -2.7106e-09 10.2786 0.731801 0.0259123 1.70823e-10 -5.99372e-11 -2.7106e-09 2.22167 -0.733487 -0.20892 2.17291e-13 -2.19607e-13 3.70547e-13 -67.8946 49.0714 -19.4441 28.4005 -34.3198 -74.2318 0.00220929 1.64619 -0.2314 -3.12705e-09 1.51729e-08 4.24237e-09 -5.39629e-09 2.62107e-08 7.32997e-09 -3.12706e-09 1.51729e-08 4.24238e-09 -7.73091 5.47488 -0.417314 -3.12705e-09 1.51729e-08 4.24236e-09 -2.90554 0.965183 -0.102902 -3.12706e-09 1.51729e-08 4.24236e-09 -10.2786 0.731801 -0.0259123 -3.12705e-09 1.51729e-08 4.24235e-09 -2.22167 -0.733487 0.20892 -2.03217e-16 0.0 -3.88251e-19 -56.7153 -76.2431 -59.0425 -13.7663 85.7517 14.0227 -0.420687 -11.8454 -0.779885 2.03217e-16 0.0 3.88251e-19 -13.2361 -14.425 -3.37878 0.228152 35.7033 -0.813947 1.36114 8.59966 -19.9139
